<?xml version="1.0" encoding="UTF-8" standalone="no"?>
<svg
   version="1.0"
   width="521px"
   height="361px"
   viewBox="0 0 521.000000 361.000000"
   preserveAspectRatio="xMidYMid meet"
   xmlns="http://www.w3.org/2000/svg">
   <g
      transform="translate(0.000000,361.000000) scale(0.100000,-0.100000)"
      fill="none"
      stroke="#916f7c"
      stroke-width="10">
      <path
         d="M2655 3082 c-117 -56 -311 -240 -422 -403 -169 -246 -209 -597 -107 -931 l27 -89 -21 -37 c-22 -39 -42 -53 -42 -29 0 30 -58 95 -97 107 -21 7 -53 26 -71 41 -48 42 -71 52 -311 134 -250 85 -323 118 -388 178 -86 78 -109 182 -54 238 20 20 39 29 61 29 18 0 29 4 25 10 -14 23 -67 10 -101 -24 -30 -30 -34 -40 -34 -87 0 -69 28 -125 91 -184 64 -60 144 -96 403 -184 198 -67 278 -102 304 -134 10 -12 7 -18 -13 -31 -85 -56 -59 -193 42 -227 32 -10 38 -9 50 6 28 40 27 130 -3 200 -17 41 38 -9 67 -61 l28 -50 -26 -64 c-39 -96 -37 -193 4 -281 57 -120 131 -184 359 -310 71 -39 188 -115 259 -169 177 -133 227 -162 267 -158 21 2 34 9 36 19 4 22 -125 177 -265 317 -117 118 -120 122 -38 61 116 -86 339 -171 565 -214 74 -14 142 -28 150 -31 8 -2 31 -29 50 -60 43 -68 141 -164 169 -164 11 0 27 7 35 16 46 45 -9 127 -121 179 -43 21 -85 40 -93 44 -36 19 -71 191 -51 253 15 45 38 67 136 125 93 56 137 112 155 199 13 63 3 125 -30 182 -19 31 -19 33 0 65 11 18 23 69 29 117 14 111 39 149 169 264 112 99 158 156 205 256 27 56 31 77 32 146 0 73 -3 84 -27 116 -61 81 -176 104 -344 69 -217 -45 -497 -159 -815 -332 -311 -170 -473 -281 -641 -438 l-87 -82 -26 82 c-42 133 -58 257 -52 399 7 153 33 263 91 385 105 221 369 489 530 537 31 10 43 9 64 -3 91 -51 116 -224 59 -399 -28 -82 -131 -337 -141 -347 -4 -4 -19 7 -35 24 -33 37 -63 48 -91 33 -31 -17 -36 -56 -12 -105 26 -53 54 -65 92 -37 15 12 30 18 34 15 10 -10 6 -55 -8 -96 -8 -20 -10 -40 -5 -42 17 -11 34 42 34 110 1 43 7 81 17 100 32 60 140 342 154 400 31 132 8 269 -56 336 -46 48 -80 51 -165 11z m1328 -585 c67 -40 90 -83 85 -160 -7 -118 -97 -265 -227 -371 -137 -113 -167 -157 -182 -278 -5 -44 -16 -93 -24 -109 l-15 -28 -50 34 c-81 55 -158 60 -193 14 -15 -22 -17 -33 -10 -55 22 -68 127 -95 208 -54 22 11 40 20 42 20 1 0 12 -19 24 -42 32 -63 30 -143 -7 -215 -24 -48 -41 -66 -94 -100 -171 -110 -184 -128 -176 -238 2 -38 12 -90 20 -114 9 -24 14 -46 12 -48 -2 -2 -65 7 -139 22 -200 38 -434 123 -541 197 -199 137 -406 390 -509 621 l-27 59 53 55 c331 351 1295 834 1633 819 56 -2 82 -9 117 -29z m-1365 -131 c15 -8 34 -26 42 -41 14 -26 13 -29 -13 -51 -22 -19 -32 -22 -47 -14 -26 14 -44 73 -30 100 13 24 13 24 48 6z m-636 -732 c22 -52 21 -125 -4 -150 -11 -12 -18 -11 -45 6 -67 40 -80 127 -26 170 38 30 52 25 75 -26z m338 -288 c30 -44 91 -121 135 -170 52 -60 67 -82 45 -65 -19 14 -69 50 -110 79 -135 94 -184 151 -244 283 l-34 75 25 42 25 41 52 -103 c28 -57 76 -139 106 -182z m1207 239 c72 -36 81 -49 49 -71 -62 -40 -163 -23 -188 31 -9 20 -8 29 7 45 25 27 70 25 132 -5z m-1375 -168 c57 -111 104 -161 244 -258 170 -117 351 -290 524 -499 49 -60 52 -65 31 -68 -29 -5 -86 30 -235 142 -129 97 -164 119 -356 227 -131 73 -232 164 -271 244 -31 66 -38 182 -14 254 9 28 20 51 23 51 4 0 28 -42 54 -93z m1344 -723 c60 -25 122 -72 140 -105 17 -33 11 -69 -12 -69 -20 0 -109 84 -145 137 -41 59 -41 61 17 37z"
         stroke-dasharray="29416.801"
         stroke-dashoffset="29416.801">
         <animate
            attributeName="stroke-dashoffset"
            from="29416.801"
            to="0"
            dur="4s"
            repeatCount="indefinite" />
      </path>
   </g>
</svg>
