<?xml version="1.0" encoding="UTF-8" standalone="no"?>
<svg
   version="1.0"
   width="733.33331"
   height="304"
   viewBox="0 0 549.99998 228"
   preserveAspectRatio="xMidYMid"
   id="svg2"
   sodipodi:docname="flor_form.svg"
   inkscape:version="1.4 (86a8ad7, 2024-10-11)"
   xmlns:inkscape="http://www.inkscape.org/namespaces/inkscape"
   xmlns:sodipodi="http://sodipodi.sourceforge.net/DTD/sodipodi-0.dtd"
   xmlns="http://www.w3.org/2000/svg"
   xmlns:svg="http://www.w3.org/2000/svg">
  <defs
     id="defs2" />
  <sodipodi:namedview
     id="namedview2"
     pagecolor="#505050"
     bordercolor="#eeeeee"
     borderopacity="1"
     inkscape:showpageshadow="0"
     inkscape:pageopacity="0"
     inkscape:pagecheckerboard="0"
     inkscape:deskcolor="#505050"
     inkscape:document-units="pt"
     inkscape:zoom="0.78077374"
     inkscape:cx="414.33258"
     inkscape:cy="106.9452"
     inkscape:window-width="1920"
     inkscape:window-height="1009"
     inkscape:window-x="1912"
     inkscape:window-y="-8"
     inkscape:window-maximized="1"
     inkscape:current-layer="g2"
     showguides="true" />
  <g
     transform="matrix(0.1,0,0,-0.10021168,0,228.4805)"
     fill="#000000"
     stroke="none"
     id="g2"
     style="fill:#916f7c">
    <path
       d="m 4404,2215 -47,-54 -31,44 c -17,25 -36,45 -42,45 -14,0 -54,-43 -54,-58 0,-15 -5,-15 -38,2 -37,18 -89,27 -119,20 l -24,-6 21,-23 c 43,-46 42,-74 -9,-315 -26,-120 -24,-186 8,-248 28,-54 91,-115 158,-149 29,-15 53,-31 53,-35 0,-4 -15,-72 -34,-150 -52,-218 -63,-283 -91,-563 -14,-143 -28,-271 -31,-285 -5,-20 -13,-3 -40,80 -80,246 -224,478 -353,571 -73,52 -91,51 -93,-3 -7,-188 15,-244 202,-508 67,-96 169,-292 200,-389 13,-40 20,-82 18,-115 l -3,-51 -37,1 c -70,2 -331,156 -493,292 l -70,58 v 76 c 0,62 -4,82 -21,105 -24,31 -53,40 -83,23 -41,-22 -17,-93 56,-172 24,-25 25,-30 13,-58 -18,-42 -90,-104 -141,-119 -104,-31 -235,-22 -380,26 -109,36 -184,86 -309,207 -156,151 -277,219 -474,266 -225,54 -429,32 -661,-73 C 1337,604 1248,582 1125,574 851,556 443,662 77,846 39,866 6,880 4,877 -1,873 235,758 310,729 626,606 892,551 1120,563 c 139,8 201,24 346,88 184,81 345,109 514,90 257,-29 434,-114 612,-292 140,-140 237,-196 400,-230 210,-43 355,-7 426,105 l 29,44 79,-65 c 223,-183 508,-333 539,-283 15,23 5,116 -19,187 -14,40 -48,118 -76,175 -47,93 -89,159 -225,355 -60,87 -86,161 -92,265 -3,48 -3,94 0,103 6,14 9,14 39,-1 53,-27 136,-114 193,-199 137,-208 243,-496 229,-622 -7,-58 1,-103 18,-103 8,0 9,26 4,92 -4,68 2,167 24,392 33,329 44,399 97,619 29,124 38,147 53,147 10,0 21,-4 24,-8 2,-4 -9,-66 -25,-137 -43,-194 -86,-427 -99,-545 -7,-58 -19,-117 -26,-132 -18,-34 -18,-71 -1,-66 6,3 16,26 21,52 9,44 20,57 140,171 146,138 190,200 210,296 13,62 14,63 25,36 29,-74 11,-155 -85,-370 -124,-279 -155,-393 -119,-444 35,-51 100,-39 314,59 135,61 166,71 228,76 61,4 77,1 105,-16 19,-12 39,-32 45,-44 72,-154 89,-184 138,-233 68,-68 162,-115 241,-120 l 59,-4 -50,9 c -171,31 -292,134 -354,301 -46,122 -140,153 -296,96 -22,-8 -87,-38 -145,-66 -206,-99 -290,-97 -290,5 0,40 63,216 126,357 85,185 104,243 104,316 0,68 -25,135 -64,169 -19,16 -19,16 -12,-3 24,-60 27,-89 16,-134 -25,-99 -51,-132 -252,-321 l -68,-63 v 44 c 0,73 75,482 126,683 5,19 12,21 97,22 205,1 285,79 387,374 23,65 44,106 67,131 52,55 23,90 -63,76 -32,-5 -35,-4 -34,16 4,41 0,52 -27,81 -25,28 -29,28 -95,23 -43,-4 -68,-2 -68,4 0,6 -10,33 -22,60 -19,45 -24,50 -45,44 -19,-4 -29,0 -44,20 -11,14 -27,25 -34,25 -8,0 -35,-25 -61,-55 z m 91,15 c 13,-25 20,-29 40,-24 22,6 27,1 46,-41 28,-64 39,-146 23,-183 -6,-16 -30,-56 -53,-89 -37,-54 -132,-243 -189,-375 -21,-48 -38,-60 -48,-34 -3,8 1,48 10,88 8,40 20,138 26,218 10,139 8,163 -16,281 -5,20 6,41 46,95 51,68 76,94 92,94 4,0 14,-14 23,-30 z m -182,-29 c 23,-35 25,-43 14,-70 -15,-40 -30,-39 -61,2 -30,39 -32,54 -10,85 21,30 27,28 57,-17 z m -130,-17 c 35,-17 99,-92 135,-157 30,-56 29,-152 -3,-301 -14,-66 -25,-148 -25,-191 0,-54 -4,-75 -13,-75 -22,0 -136,80 -167,118 -69,84 -73,150 -20,372 35,148 36,164 11,213 l -19,37 h 35 c 19,0 49,-7 66,-16 z m 586,-103 c 36,-50 28,-67 -41,-101 -116,-54 -180,-128 -277,-315 -11,-22 -20,-36 -21,-32 -1,18 105,218 141,266 50,66 59,89 59,151 0,54 4,57 77,59 35,1 45,-3 62,-28 z m 125,-97 c 24,-9 19,-40 -8,-57 -13,-9 -32,-38 -42,-64 -100,-277 -143,-353 -221,-395 -89,-49 -271,-63 -256,-20 3,9 43,94 89,188 98,202 148,265 243,308 80,36 162,53 195,40 z m -575,-371 c -6,-32 -14,-52 -17,-44 -2,7 1,39 8,70 7,31 15,50 17,44 3,-7 -1,-39 -8,-70 z m 21,-163 c 12,-8 11,-10 -7,-10 -12,0 -25,5 -28,10 -8,13 15,13 35,0 z M 3423,553 c 22,-43 28,-81 21,-119 -6,-34 -7,-35 -27,-17 -28,25 -77,103 -77,123 0,45 62,55 83,13 z"
       id="path1"
       style="fill:#916f7c"
       sodipodi:nodetypes="cccsscccccccscccccccccccccscccsccccccccccccscccccccccccccscccscccccccccccccccsccccccscscccccsccccccccscccsccccccccccccscccccccccssccccsccccccsccccccccccccscccscccccsc" />
  </g>
</svg>
